<svg xmlns="http://www.w3.org/2000/svg" viewBox="0 0 420 420">
  <defs>
    <radialGradient id="bg" cx="50%" cy="34%" r="78%"><stop offset="0%" stop-color="#5f6f86"/><stop offset="42%" stop-color="#10241f"/><stop offset="100%" stop-color="#0a1020"/></radialGradient>
    <radialGradient id="halo" cx="50%" cy="42%" r="54%"><stop offset="0%" stop-color="#f0fdf4" stop-opacity=".32"/><stop offset="55%" stop-color="#34d399" stop-opacity=".16"/><stop offset="100%" stop-color="#0ea5e9" stop-opacity="0"/></radialGradient>
    <linearGradient id="metal" x1="0" y1="0" x2="1" y2="1"><stop offset="0%" stop-color="#ffffff"/><stop offset="19%" stop-color="#f0fdf4"/><stop offset="56%" stop-color="#34d399"/><stop offset="100%" stop-color="#0ea5e9"/></linearGradient>
    <linearGradient id="frame" x1="0" y1="0" x2="1" y2="1"><stop offset="0%" stop-color="#f0fdf4"/><stop offset="46%" stop-color="#34d399"/><stop offset="100%" stop-color="#0ea5e9"/></linearGradient>
    <filter id="glow"><feGaussianBlur stdDeviation="6" result="b"/><feMerge><feMergeNode in="b"/><feMergeNode in="SourceGraphic"/></feMerge></filter>
    <filter id="lift" x="-30%" y="-30%" width="160%" height="160%"><feDropShadow dx="0" dy="10" stdDeviation="8" flood-color="#020617" flood-opacity=".55"/></filter>
  </defs>
  <rect x="10" y="10" width="400" height="400" rx="36" fill="url(#bg)"/>
  <rect x="18" y="18" width="384" height="384" rx="28" fill="none" stroke="url(#frame)" stroke-width="6"/>
  <path d="M40 96 C98 38 322 38 380 96 L360 118 C300 82 120 82 60 118 Z" fill="#fff" opacity=".05"/>
  <circle cx="210" cy="190" r="142" fill="url(#halo)" filter="url(#glow)"/>
  <circle cx="210" cy="190" r="108" fill="#020617" opacity=".18"/>
  <g transform="translate(48 4) scale(1.02)" filter="url(#lift)"><path d="M222 74 L248 100 L124 284 L94 302 L112 272 Z" fill="#f0fdf4" opacity=".92"/><path d="M96 294 L128 326" stroke="#f0fdf4" stroke-width="16" stroke-linecap="round"/><path d="M80 340 L140 280" stroke="url(#metal)" stroke-width="18" stroke-linecap="round"/></g>
  <path d="M70 290 C130 314 290 314 350 290" fill="none" stroke="#34d399" stroke-width="2" opacity=".3"/>
  <text x="210" y="325" text-anchor="middle" fill="#f8fafc" font-size="25" font-family="Georgia,serif" font-weight="700">Skin Arma Argento Muto</text>
  <text x="210" y="356" text-anchor="middle" fill="#34d399" font-size="15" font-family="Arial,sans-serif" letter-spacing="2">NON COMUNE</text>
  <text x="210" y="382" text-anchor="middle" fill="#94a3b8" font-size="14" font-family="Arial,sans-serif">weapon_skin - ARMA</text>
</svg>