<svg xmlns="http://www.w3.org/2000/svg" viewBox="0 0 320 640">
  <defs>
    <linearGradient id="mat" x1="0" y1="0" x2="1" y2="1"><stop offset="0%" stop-color="#f8fafc"/><stop offset="42%" stop-color="#d8d4c8"/><stop offset="100%" stop-color="#5b554a"/></linearGradient>
    <linearGradient id="edge" x1="0" y1="0" x2="1" y2="1"><stop offset="0%" stop-color="#fff" stop-opacity=".75"/><stop offset="45%" stop-color="#f8fafc" stop-opacity=".28"/><stop offset="100%" stop-color="#020617" stop-opacity=".45"/></linearGradient>
    <linearGradient id="trim" x1="0" y1="0" x2="1" y2="0"><stop offset="0%" stop-color="#cbd5e1"/><stop offset="100%" stop-color="#64748b"/></linearGradient>
    <radialGradient id="jewel" cx="38%" cy="28%" r="70%"><stop offset="0%" stop-color="#fff"/><stop offset="28%" stop-color="#f8fafc"/><stop offset="70%" stop-color="#cbd5e1"/><stop offset="100%" stop-color="#64748b"/></radialGradient>
    <filter id="shadow" x="-30%" y="-30%" width="160%" height="160%"><feDropShadow dx="0" dy="6" stdDeviation="4" flood-color="#020617" flood-opacity=".52"/></filter>
  </defs>
  <g filter="url(#shadow)" ><path d="M100 116 C104 50 216 50 220 116 L208 188 C184 204 136 204 112 188 Z" fill="url(#mat)"/><path d="M112 126 C132 144 188 144 208 126 L202 182 C178 197 142 197 118 182 Z" fill="url(#edge)" opacity=".45"/><path d="M122 170 C132 116 188 116 198 170 C176 158 144 158 122 170 Z" fill="#020617" opacity=".62"/><path d="M110 128 C132 146 188 146 210 128" stroke="url(#trim)" stroke-width="5" opacity=".76" fill="none"/><path d="M128 88 C146 76 174 76 192 88" stroke="#111827" stroke-width="3" opacity=".42" fill="none"/></g>
</svg>