<svg xmlns="http://www.w3.org/2000/svg" viewBox="0 0 320 640">
  <defs>
    <linearGradient id="skin" x1="0" y1="0" x2="1" y2="1">
      <stop offset="0%" stop-color="#dcb98e"/>
      <stop offset="100%" stop-color="#8b5cf6"/>
    </linearGradient>
    <radialGradient id="light" cx="45%" cy="32%" r="70%">
      <stop offset="0%" stop-color="#ffffff" stop-opacity=".16"/>
      <stop offset="100%" stop-color="#020617" stop-opacity=".12"/>
    </radialGradient>
  </defs>
  <title>Fatato female</title>
  <ellipse cx="160" cy="606" rx="78" ry="15" fill="#020617" opacity=".28"/>
  <path d="M116 86 L78 58 L104 108 Z M204 86 L242 58 L216 108 Z" fill="#dcb98e" stroke="#8b5cf6" stroke-width="3"/>
<path d="M100 150 C36 170 34 250 108 244 C78 218 76 182 100 150 Z" fill="#a7f3d0" opacity=".36"/>
<path d="M220 150 C284 170 286 250 212 244 C242 218 244 182 220 150 Z" fill="#a7f3d0" opacity=".36"/>
  <path d="M116 162 C123 122 197 122 204 162
           L192.88888888888889 298 C184 320 136 320 127.11111111111111 298 Z" fill="url(#skin)"/>
  <path d="M122 180 L86 306" stroke="url(#skin)" stroke-width="23" stroke-linecap="round"/>
  <path d="M198 180 L234 306" stroke="url(#skin)" stroke-width="23" stroke-linecap="round"/>
  <path d="M138 296 L126 518" stroke="url(#skin)" stroke-width="25" stroke-linecap="round"/>
  <path d="M182 296 L194 518" stroke="url(#skin)" stroke-width="25" stroke-linecap="round"/>
  <ellipse cx="122" cy="548" rx="22.5" ry="14" fill="url(#skin)"/>
  <ellipse cx="198" cy="548" rx="22.5" ry="14" fill="url(#skin)"/>
  <circle cx="160" cy="86" r="34" fill="url(#skin)"/>
  <path d="M142 82 L155 84 M165 84 L178 82" stroke="#111827" stroke-width="4" stroke-linecap="round" opacity=".45"/>
  <path d="M146 106 C158 114 162 114 174 106" fill="none" stroke="#111827" stroke-width="3" opacity=".28"/>
  <path d="M130 184 C150 170 170 170 190 184" fill="none" stroke="#f8fafc" stroke-width="5" opacity=".14"/>
  <path d="M131.53846153846155 158 L160 222 L188.46153846153845 158" fill="none" stroke="#f8fafc" stroke-width="5" opacity=".15"/>
  <rect width="320" height="640" fill="url(#light)"/>
</svg>